<?xml version="1.0" encoding="utf-8"?>
<svg viewBox="0 86.75564575195312 494.35321044921875 197.12527465820312" xmlns="http://www.w3.org/2000/svg" xmlns:bx="https://boxy-svg.com">
  <defs>
    <linearGradient id="gradient-1" gradientUnits="userSpaceOnUse" x1="689.338" y1="188.19" x2="689.338" y2="248.116" gradientTransform="matrix(0.003298, -0.753365, 1.275801, 0.003634, -52.984485, 729.210866)">
      <stop offset="0" style="stop-color: rgb(241, 128, 82);"/>
      <stop offset="1" style="stop-color: rgba(187, 35, 15, 1)"/>
    </linearGradient>
  </defs>
  <rect x="41.058" y="168.604" width="390.706" height="45.147" style="fill: none; stroke-width: 20; stroke-linejoin: round; stroke: url(#gradient-1);"/>
  <rect x="41.028" y="168.604" width="130.707" height="45.147" style="fill: none; stroke-width: 20; stroke-linejoin: round; stroke: rgb(187, 218, 85);"/>
  <path d="M 206.452 -232.421 L 220.827 -215.581 L 192.077 -215.581 L 206.452 -232.421 Z" style="fill: rgb(216, 216, 216);" transform="matrix(0, -1, -1, 0, -40.140518, 454.753265)" bx:shape="triangle 192.077 -232.421 28.75 16.84 0.5 0 1@65a171a6"/>
  <text x="383.984" y="229.979" style="white-space: pre; fill: rgb(51, 51, 51); font-family: sans-serif; font-size: 24px;"> </text>
  <line style="stroke: rgb(0, 0, 0);" x1="183.77822875976562" y1="403.4907531738281" x2="183.77822875976562" y2="403.4907531738281"/>
  <line style="stroke: rgb(187, 218, 85);" x1="179.211" y1="138.09" x2="182.291" y2="214.065"/>
  <line style="stroke: rgb(187, 35, 15);" x1="440.211" y1="140.09" x2="441.751" y2="212.985"/>
  <path d="M 59.931 232.173 L 55.621 240.933 L 55.621 248.973 L 54.111 248.973 L 54.111 240.953 L 49.761 232.173 L 51.391 232.173 L 54.851 239.153 L 58.301 232.173 L 59.931 232.173 ZM 69.873 245.683 L 69.873 245.683 L 69.873 245.683 C 69.873 246.163 69.78 246.62 69.593 247.053 L 69.593 247.053 L 69.593 247.053 C 69.413 247.48 69.163 247.853 68.843 248.173 L 68.843 248.173 L 68.843 248.173 C 68.523 248.493 68.147 248.746 67.713 248.933 L 67.713 248.933 L 67.713 248.933 C 67.287 249.113 66.83 249.203 66.343 249.203 L 66.343 249.203 L 65.383 249.203 L 65.383 249.203 C 64.897 249.203 64.44 249.113 64.013 248.933 L 64.013 248.933 L 64.013 248.933 C 63.58 248.746 63.203 248.493 62.883 248.173 L 62.883 248.173 L 62.883 248.173 C 62.563 247.853 62.313 247.48 62.133 247.053 L 62.133 247.053 L 62.133 247.053 C 61.947 246.62 61.853 246.163 61.853 245.683 L 61.853 245.683 L 61.853 240.263 L 61.853 240.263 C 61.853 239.783 61.947 239.326 62.133 238.893 L 62.133 238.893 L 62.133 238.893 C 62.313 238.466 62.563 238.093 62.883 237.773 L 62.883 237.773 L 62.883 237.773 C 63.203 237.453 63.58 237.2 64.013 237.013 L 64.013 237.013 L 64.013 237.013 C 64.44 236.833 64.897 236.743 65.383 236.743 L 65.383 236.743 L 66.343 236.743 L 66.343 236.743 C 66.83 236.743 67.287 236.833 67.713 237.013 L 67.713 237.013 L 67.713 237.013 C 68.147 237.2 68.523 237.453 68.843 237.773 L 68.843 237.773 L 68.843 237.773 C 69.163 238.093 69.413 238.466 69.593 238.893 L 69.593 238.893 L 69.593 238.893 C 69.78 239.326 69.873 239.783 69.873 240.263 L 69.873 240.263 L 69.873 245.683 Z M 68.433 245.763 L 68.433 240.183 L 68.433 240.183 C 68.433 239.896 68.377 239.626 68.263 239.373 L 68.263 239.373 L 68.263 239.373 C 68.157 239.12 68.01 238.896 67.823 238.703 L 67.823 238.703 L 67.823 238.703 C 67.637 238.516 67.413 238.37 67.153 238.263 L 67.153 238.263 L 67.153 238.263 C 66.9 238.15 66.63 238.093 66.343 238.093 L 66.343 238.093 L 65.383 238.093 L 65.383 238.093 C 65.097 238.093 64.823 238.15 64.563 238.263 L 64.563 238.263 L 64.563 238.263 C 64.31 238.37 64.09 238.516 63.903 238.703 L 63.903 238.703 L 63.903 238.703 C 63.717 238.896 63.57 239.12 63.463 239.373 L 63.463 239.373 L 63.463 239.373 C 63.35 239.626 63.293 239.896 63.293 240.183 L 63.293 240.183 L 63.293 245.763 L 63.293 245.763 C 63.293 246.05 63.35 246.32 63.463 246.573 L 63.463 246.573 L 63.463 246.573 C 63.57 246.826 63.717 247.05 63.903 247.243 L 63.903 247.243 L 63.903 247.243 C 64.09 247.43 64.31 247.576 64.563 247.683 L 64.563 247.683 L 64.563 247.683 C 64.823 247.79 65.097 247.843 65.383 247.843 L 65.383 247.843 L 66.343 247.843 L 66.343 247.843 C 66.63 247.843 66.9 247.79 67.153 247.683 L 67.153 247.683 L 67.153 247.683 C 67.413 247.576 67.637 247.43 67.823 247.243 L 67.823 247.243 L 67.823 247.243 C 68.01 247.05 68.157 246.826 68.263 246.573 L 68.263 246.573 L 68.263 246.573 C 68.377 246.32 68.433 246.05 68.433 245.763 L 68.433 245.763 ZM 80.771 248.973 L 80.291 248.973 L 79.491 247.753 L 79.491 247.753 C 79.165 248.2 78.755 248.553 78.261 248.813 L 78.261 248.813 L 78.261 248.813 C 77.768 249.073 77.228 249.203 76.641 249.203 L 76.641 249.203 L 76.281 249.203 L 76.281 249.203 C 75.795 249.203 75.338 249.113 74.911 248.933 L 74.911 248.933 L 74.911 248.933 C 74.478 248.746 74.101 248.493 73.781 248.173 L 73.781 248.173 L 73.781 248.173 C 73.461 247.853 73.211 247.48 73.031 247.053 L 73.031 247.053 L 73.031 247.053 C 72.845 246.62 72.751 246.163 72.751 245.683 L 72.751 245.683 L 72.751 236.973 L 74.191 236.973 L 74.191 245.763 L 74.191 245.763 C 74.191 246.05 74.248 246.32 74.361 246.573 L 74.361 246.573 L 74.361 246.573 C 74.468 246.826 74.615 247.05 74.801 247.243 L 74.801 247.243 L 74.801 247.243 C 74.988 247.43 75.208 247.576 75.461 247.683 L 75.461 247.683 L 75.461 247.683 C 75.721 247.79 75.995 247.843 76.281 247.843 L 76.281 247.843 L 77.241 247.843 L 77.241 247.843 C 77.528 247.843 77.798 247.79 78.051 247.683 L 78.051 247.683 L 78.051 247.683 C 78.311 247.576 78.535 247.43 78.721 247.243 L 78.721 247.243 L 78.721 247.243 C 78.908 247.05 79.055 246.826 79.161 246.573 L 79.161 246.573 L 79.161 246.573 C 79.275 246.32 79.331 246.05 79.331 245.763 L 79.331 245.763 L 79.331 236.973 L 80.771 236.973 L 80.771 248.973 ZM 91.089 248.973 L 89.649 248.973 L 89.649 232.173 L 91.089 232.173 L 91.089 248.973 ZM 102.474 245.683 L 102.474 245.683 L 102.474 245.683 C 102.474 246.163 102.38 246.62 102.194 247.053 L 102.194 247.053 L 102.194 247.053 C 102.014 247.48 101.764 247.853 101.444 248.173 L 101.444 248.173 L 101.444 248.173 C 101.124 248.493 100.747 248.746 100.314 248.933 L 100.314 248.933 L 100.314 248.933 C 99.887 249.113 99.43 249.203 98.944 249.203 L 98.944 249.203 L 97.984 249.203 L 97.984 249.203 C 97.497 249.203 97.04 249.113 96.614 248.933 L 96.614 248.933 L 96.614 248.933 C 96.18 248.746 95.804 248.493 95.484 248.173 L 95.484 248.173 L 95.484 248.173 C 95.164 247.853 94.914 247.48 94.734 247.053 L 94.734 247.053 L 94.734 247.053 C 94.547 246.62 94.454 246.163 94.454 245.683 L 94.454 245.683 L 94.454 240.263 L 94.454 240.263 C 94.454 239.783 94.547 239.326 94.734 238.893 L 94.734 238.893 L 94.734 238.893 C 94.914 238.466 95.164 238.093 95.484 237.773 L 95.484 237.773 L 95.484 237.773 C 95.804 237.453 96.18 237.2 96.614 237.013 L 96.614 237.013 L 96.614 237.013 C 97.04 236.833 97.497 236.743 97.984 236.743 L 97.984 236.743 L 98.944 236.743 L 98.944 236.743 C 99.43 236.743 99.887 236.833 100.314 237.013 L 100.314 237.013 L 100.314 237.013 C 100.747 237.2 101.124 237.453 101.444 237.773 L 101.444 237.773 L 101.444 237.773 C 101.764 238.093 102.014 238.466 102.194 238.893 L 102.194 238.893 L 102.194 238.893 C 102.38 239.326 102.474 239.783 102.474 240.263 L 102.474 240.263 L 102.474 245.683 Z M 101.034 245.763 L 101.034 240.183 L 101.034 240.183 C 101.034 239.896 100.977 239.626 100.864 239.373 L 100.864 239.373 L 100.864 239.373 C 100.757 239.12 100.61 238.896 100.424 238.703 L 100.424 238.703 L 100.424 238.703 C 100.237 238.516 100.014 238.37 99.754 238.263 L 99.754 238.263 L 99.754 238.263 C 99.5 238.15 99.23 238.093 98.944 238.093 L 98.944 238.093 L 97.984 238.093 L 97.984 238.093 C 97.697 238.093 97.424 238.15 97.164 238.263 L 97.164 238.263 L 97.164 238.263 C 96.91 238.37 96.69 238.516 96.504 238.703 L 96.504 238.703 L 96.504 238.703 C 96.317 238.896 96.17 239.12 96.064 239.373 L 96.064 239.373 L 96.064 239.373 C 95.95 239.626 95.894 239.896 95.894 240.183 L 95.894 240.183 L 95.894 245.763 L 95.894 245.763 C 95.894 246.05 95.95 246.32 96.064 246.573 L 96.064 246.573 L 96.064 246.573 C 96.17 246.826 96.317 247.05 96.504 247.243 L 96.504 247.243 L 96.504 247.243 C 96.69 247.43 96.91 247.576 97.164 247.683 L 97.164 247.683 L 97.164 247.683 C 97.424 247.79 97.697 247.843 97.984 247.843 L 97.984 247.843 L 98.944 247.843 L 98.944 247.843 C 99.23 247.843 99.5 247.79 99.754 247.683 L 99.754 247.683 L 99.754 247.683 C 100.014 247.576 100.237 247.43 100.424 247.243 L 100.424 247.243 L 100.424 247.243 C 100.61 247.05 100.757 246.826 100.864 246.573 L 100.864 246.573 L 100.864 246.573 C 100.977 246.32 101.034 246.05 101.034 245.763 L 101.034 245.763 ZM 113.602 245.923 L 113.602 245.923 L 113.602 245.923 C 113.602 246.41 113.505 246.853 113.312 247.253 L 113.312 247.253 L 113.312 247.253 C 113.118 247.66 112.852 248.006 112.512 248.293 L 112.512 248.293 L 112.512 248.293 C 112.178 248.58 111.792 248.803 111.352 248.963 L 111.352 248.963 L 111.352 248.963 C 110.905 249.123 110.442 249.203 109.962 249.203 L 109.962 249.203 L 109.002 249.203 L 109.002 249.203 C 108.515 249.203 108.052 249.113 107.612 248.933 L 107.612 248.933 L 107.612 248.933 C 107.172 248.746 106.785 248.493 106.452 248.173 L 106.452 248.173 L 106.452 248.173 C 106.118 247.853 105.852 247.48 105.652 247.053 L 105.652 247.053 L 105.652 247.053 C 105.452 246.62 105.352 246.163 105.352 245.683 L 105.352 245.683 L 105.352 245.203 L 106.792 244.963 L 106.792 245.763 L 106.792 245.763 C 106.792 246.05 106.852 246.32 106.972 246.573 L 106.972 246.573 L 106.972 246.573 C 107.098 246.826 107.262 247.05 107.462 247.243 L 107.462 247.243 L 107.462 247.243 C 107.668 247.43 107.902 247.576 108.162 247.683 L 108.162 247.683 L 108.162 247.683 C 108.428 247.79 108.708 247.843 109.002 247.843 L 109.002 247.843 L 109.962 247.843 L 109.962 247.843 C 110.248 247.843 110.525 247.803 110.792 247.723 L 110.792 247.723 L 110.792 247.723 C 111.058 247.636 111.295 247.513 111.502 247.353 L 111.502 247.353 L 111.502 247.353 C 111.708 247.193 111.872 247 111.992 246.773 L 111.992 246.773 L 111.992 246.773 C 112.112 246.546 112.172 246.286 112.172 245.993 L 112.172 245.993 L 112.172 245.993 C 112.172 245.566 112.078 245.216 111.892 244.943 L 111.892 244.943 L 111.892 244.943 C 111.705 244.67 111.458 244.44 111.152 244.253 L 111.152 244.253 L 111.152 244.253 C 110.838 244.073 110.485 243.923 110.092 243.803 L 110.092 243.803 L 110.092 243.803 C 109.698 243.676 109.295 243.553 108.882 243.433 L 108.882 243.433 L 108.882 243.433 C 108.468 243.313 108.065 243.176 107.672 243.023 L 107.672 243.023 L 107.672 243.023 C 107.272 242.863 106.918 242.656 106.612 242.403 L 106.612 242.403 L 106.612 242.403 C 106.305 242.15 106.058 241.833 105.872 241.453 L 105.872 241.453 L 105.872 241.453 C 105.685 241.066 105.592 240.59 105.592 240.023 L 105.592 240.023 L 105.592 240.023 C 105.592 239.536 105.685 239.093 105.872 238.693 L 105.872 238.693 L 105.872 238.693 C 106.058 238.286 106.312 237.94 106.632 237.653 L 106.632 237.653 L 106.632 237.653 C 106.952 237.366 107.325 237.143 107.752 236.983 L 107.752 236.983 L 107.752 236.983 C 108.178 236.823 108.632 236.743 109.112 236.743 L 109.112 236.743 L 109.962 236.743 L 109.962 236.743 C 110.442 236.743 110.898 236.833 111.332 237.013 L 111.332 237.013 L 111.332 237.013 C 111.758 237.2 112.132 237.453 112.452 237.773 L 112.452 237.773 L 112.452 237.773 C 112.772 238.093 113.025 238.466 113.212 238.893 L 113.212 238.893 L 113.212 238.893 C 113.392 239.326 113.482 239.783 113.482 240.263 L 113.482 240.263 L 113.482 240.313 L 112.042 240.543 L 112.042 240.183 L 112.042 240.183 C 112.042 239.896 111.988 239.626 111.882 239.373 L 111.882 239.373 L 111.882 239.373 C 111.768 239.12 111.618 238.896 111.432 238.703 L 111.432 238.703 L 111.432 238.703 C 111.245 238.516 111.025 238.37 110.772 238.263 L 110.772 238.263 L 110.772 238.263 C 110.518 238.15 110.248 238.093 109.962 238.093 L 109.962 238.093 L 109.112 238.093 L 109.112 238.093 C 108.825 238.093 108.555 238.136 108.302 238.223 L 108.302 238.223 L 108.302 238.223 C 108.048 238.31 107.828 238.433 107.642 238.593 L 107.642 238.593 L 107.642 238.593 C 107.455 238.753 107.305 238.946 107.192 239.173 L 107.192 239.173 L 107.192 239.173 C 107.085 239.4 107.032 239.66 107.032 239.953 L 107.032 239.953 L 107.032 239.953 C 107.032 240.366 107.125 240.703 107.312 240.963 L 107.312 240.963 L 107.312 240.963 C 107.498 241.223 107.745 241.443 108.052 241.623 L 108.052 241.623 L 108.052 241.623 C 108.365 241.803 108.718 241.953 109.112 242.073 L 109.112 242.073 L 109.112 242.073 C 109.505 242.2 109.905 242.326 110.312 242.453 L 110.312 242.453 L 110.312 242.453 C 110.725 242.58 111.128 242.726 111.522 242.893 L 111.522 242.893 L 111.522 242.893 C 111.915 243.053 112.268 243.263 112.582 243.523 L 112.582 243.523 L 112.582 243.523 C 112.888 243.783 113.135 244.106 113.322 244.493 L 113.322 244.493 L 113.322 244.493 C 113.508 244.88 113.602 245.356 113.602 245.923 ZM 124.387 245.683 L 124.387 245.683 L 124.387 245.683 C 124.387 246.163 124.293 246.62 124.107 247.053 L 124.107 247.053 L 124.107 247.053 C 123.927 247.48 123.677 247.853 123.357 248.173 L 123.357 248.173 L 123.357 248.173 C 123.037 248.493 122.66 248.746 122.227 248.933 L 122.227 248.933 L 122.227 248.933 C 121.8 249.113 121.343 249.203 120.857 249.203 L 120.857 249.203 L 119.897 249.203 L 119.897 249.203 C 119.41 249.203 118.953 249.113 118.527 248.933 L 118.527 248.933 L 118.527 248.933 C 118.093 248.746 117.717 248.493 117.397 248.173 L 117.397 248.173 L 117.397 248.173 C 117.077 247.853 116.827 247.48 116.647 247.053 L 116.647 247.053 L 116.647 247.053 C 116.46 246.62 116.367 246.163 116.367 245.683 L 116.367 245.683 L 116.367 240.263 L 116.367 240.263 C 116.367 239.783 116.46 239.326 116.647 238.893 L 116.647 238.893 L 116.647 238.893 C 116.827 238.466 117.077 238.093 117.397 237.773 L 117.397 237.773 L 117.397 237.773 C 117.717 237.453 118.093 237.2 118.527 237.013 L 118.527 237.013 L 118.527 237.013 C 118.953 236.833 119.41 236.743 119.897 236.743 L 119.897 236.743 L 120.857 236.743 L 120.857 236.743 C 121.343 236.743 121.8 236.833 122.227 237.013 L 122.227 237.013 L 122.227 237.013 C 122.66 237.2 123.037 237.453 123.357 237.773 L 123.357 237.773 L 123.357 237.773 C 123.677 238.093 123.927 238.466 124.107 238.893 L 124.107 238.893 L 124.107 238.893 C 124.293 239.326 124.387 239.783 124.387 240.263 L 124.387 240.263 L 124.387 243.093 L 117.807 243.093 L 117.807 245.763 L 117.807 245.763 C 117.807 246.05 117.863 246.32 117.977 246.573 L 117.977 246.573 L 117.977 246.573 C 118.083 246.826 118.23 247.05 118.417 247.243 L 118.417 247.243 L 118.417 247.243 C 118.603 247.43 118.823 247.576 119.077 247.683 L 119.077 247.683 L 119.077 247.683 C 119.337 247.79 119.61 247.843 119.897 247.843 L 119.897 247.843 L 120.857 247.843 L 120.857 247.843 C 121.143 247.843 121.413 247.79 121.667 247.683 L 121.667 247.683 L 121.667 247.683 C 121.927 247.576 122.15 247.43 122.337 247.243 L 122.337 247.243 L 122.337 247.243 C 122.523 247.05 122.67 246.826 122.777 246.573 L 122.777 246.573 L 122.777 246.573 C 122.89 246.32 122.947 246.05 122.947 245.763 L 122.947 245.763 L 122.947 244.963 L 124.387 245.203 L 124.387 245.683 Z M 122.947 241.963 L 122.947 240.183 L 122.947 240.183 C 122.947 239.896 122.89 239.626 122.777 239.373 L 122.777 239.373 L 122.777 239.373 C 122.67 239.12 122.523 238.896 122.337 238.703 L 122.337 238.703 L 122.337 238.703 C 122.15 238.516 121.927 238.37 121.667 238.263 L 121.667 238.263 L 121.667 238.263 C 121.413 238.15 121.143 238.093 120.857 238.093 L 120.857 238.093 L 119.897 238.093 L 119.897 238.093 C 119.61 238.093 119.337 238.15 119.077 238.263 L 119.077 238.263 L 119.077 238.263 C 118.823 238.37 118.603 238.516 118.417 238.703 L 118.417 238.703 L 118.417 238.703 C 118.23 238.896 118.083 239.12 117.977 239.373 L 117.977 239.373 L 117.977 239.373 C 117.863 239.626 117.807 239.896 117.807 240.183 L 117.807 240.183 L 117.807 241.963 L 122.947 241.963 ZM 140.804 236.973 L 136.544 248.973 L 135.834 248.973 L 131.574 236.973 L 133.024 236.973 L 136.144 246.063 L 136.194 246.683 L 136.244 246.063 L 139.364 236.973 L 140.804 236.973 ZM 144.515 234.093 L 142.835 234.093 L 142.835 232.173 L 144.515 232.173 L 144.515 234.093 Z M 144.395 248.973 L 142.955 248.973 L 142.955 236.973 L 144.395 236.973 L 144.395 248.973 ZM 156.01 245.923 L 156.01 245.923 L 156.01 245.923 C 156.01 246.41 155.913 246.853 155.72 247.253 L 155.72 247.253 L 155.72 247.253 C 155.527 247.66 155.26 248.006 154.92 248.293 L 154.92 248.293 L 154.92 248.293 C 154.587 248.58 154.2 248.803 153.76 248.963 L 153.76 248.963 L 153.76 248.963 C 153.313 249.123 152.85 249.203 152.37 249.203 L 152.37 249.203 L 151.41 249.203 L 151.41 249.203 C 150.923 249.203 150.46 249.113 150.02 248.933 L 150.02 248.933 L 150.02 248.933 C 149.58 248.746 149.193 248.493 148.86 248.173 L 148.86 248.173 L 148.86 248.173 C 148.527 247.853 148.26 247.48 148.06 247.053 L 148.06 247.053 L 148.06 247.053 C 147.86 246.62 147.76 246.163 147.76 245.683 L 147.76 245.683 L 147.76 245.203 L 149.2 244.963 L 149.2 245.763 L 149.2 245.763 C 149.2 246.05 149.26 246.32 149.38 246.573 L 149.38 246.573 L 149.38 246.573 C 149.507 246.826 149.67 247.05 149.87 247.243 L 149.87 247.243 L 149.87 247.243 C 150.077 247.43 150.31 247.576 150.57 247.683 L 150.57 247.683 L 150.57 247.683 C 150.837 247.79 151.117 247.843 151.41 247.843 L 151.41 247.843 L 152.37 247.843 L 152.37 247.843 C 152.657 247.843 152.933 247.803 153.2 247.723 L 153.2 247.723 L 153.2 247.723 C 153.467 247.636 153.703 247.513 153.91 247.353 L 153.91 247.353 L 153.91 247.353 C 154.117 247.193 154.28 247 154.4 246.773 L 154.4 246.773 L 154.4 246.773 C 154.52 246.546 154.58 246.286 154.58 245.993 L 154.58 245.993 L 154.58 245.993 C 154.58 245.566 154.487 245.216 154.3 244.943 L 154.3 244.943 L 154.3 244.943 C 154.113 244.67 153.867 244.44 153.56 244.253 L 153.56 244.253 L 153.56 244.253 C 153.247 244.073 152.893 243.923 152.5 243.803 L 152.5 243.803 L 152.5 243.803 C 152.107 243.676 151.703 243.553 151.29 243.433 L 151.29 243.433 L 151.29 243.433 C 150.877 243.313 150.473 243.176 150.08 243.023 L 150.08 243.023 L 150.08 243.023 C 149.68 242.863 149.327 242.656 149.02 242.403 L 149.02 242.403 L 149.02 242.403 C 148.713 242.15 148.467 241.833 148.28 241.453 L 148.28 241.453 L 148.28 241.453 C 148.093 241.066 148 240.59 148 240.023 L 148 240.023 L 148 240.023 C 148 239.536 148.093 239.093 148.28 238.693 L 148.28 238.693 L 148.28 238.693 C 148.467 238.286 148.72 237.94 149.04 237.653 L 149.04 237.653 L 149.04 237.653 C 149.36 237.366 149.733 237.143 150.16 236.983 L 150.16 236.983 L 150.16 236.983 C 150.587 236.823 151.04 236.743 151.52 236.743 L 151.52 236.743 L 152.37 236.743 L 152.37 236.743 C 152.85 236.743 153.307 236.833 153.74 237.013 L 153.74 237.013 L 153.74 237.013 C 154.167 237.2 154.54 237.453 154.86 237.773 L 154.86 237.773 L 154.86 237.773 C 155.18 238.093 155.433 238.466 155.62 238.893 L 155.62 238.893 L 155.62 238.893 C 155.8 239.326 155.89 239.783 155.89 240.263 L 155.89 240.263 L 155.89 240.313 L 154.45 240.543 L 154.45 240.183 L 154.45 240.183 C 154.45 239.896 154.397 239.626 154.29 239.373 L 154.29 239.373 L 154.29 239.373 C 154.177 239.12 154.027 238.896 153.84 238.703 L 153.84 238.703 L 153.84 238.703 C 153.653 238.516 153.433 238.37 153.18 238.263 L 153.18 238.263 L 153.18 238.263 C 152.927 238.15 152.657 238.093 152.37 238.093 L 152.37 238.093 L 151.52 238.093 L 151.52 238.093 C 151.233 238.093 150.963 238.136 150.71 238.223 L 150.71 238.223 L 150.71 238.223 C 150.457 238.31 150.237 238.433 150.05 238.593 L 150.05 238.593 L 150.05 238.593 C 149.863 238.753 149.713 238.946 149.6 239.173 L 149.6 239.173 L 149.6 239.173 C 149.493 239.4 149.44 239.66 149.44 239.953 L 149.44 239.953 L 149.44 239.953 C 149.44 240.366 149.533 240.703 149.72 240.963 L 149.72 240.963 L 149.72 240.963 C 149.907 241.223 150.153 241.443 150.46 241.623 L 150.46 241.623 L 150.46 241.623 C 150.773 241.803 151.127 241.953 151.52 242.073 L 151.52 242.073 L 151.52 242.073 C 151.913 242.2 152.313 242.326 152.72 242.453 L 152.72 242.453 L 152.72 242.453 C 153.133 242.58 153.537 242.726 153.93 242.893 L 153.93 242.893 L 153.93 242.893 C 154.323 243.053 154.677 243.263 154.99 243.523 L 154.99 243.523 L 154.99 243.523 C 155.297 243.783 155.543 244.106 155.73 244.493 L 155.73 244.493 L 155.73 244.493 C 155.917 244.88 156.01 245.356 156.01 245.923 ZM 160.815 234.093 L 159.135 234.093 L 159.135 232.173 L 160.815 232.173 L 160.815 234.093 Z M 160.695 248.973 L 159.255 248.973 L 159.255 236.973 L 160.695 236.973 L 160.695 248.973 ZM 169.75 248.973 L 168.43 248.973 L 168.43 248.973 C 167.997 248.973 167.587 248.89 167.2 248.723 L 167.2 248.723 L 167.2 248.723 C 166.813 248.563 166.477 248.336 166.19 248.043 L 166.19 248.043 L 166.19 248.043 C 165.903 247.756 165.677 247.423 165.51 247.043 L 165.51 247.043 L 165.51 247.043 C 165.343 246.656 165.26 246.246 165.26 245.813 L 165.26 245.813 L 165.26 238.343 L 163.1 238.343 L 163.1 236.973 L 165.26 236.973 L 165.26 234.093 L 166.7 233.853 L 166.7 236.973 L 169.75 236.973 L 169.75 238.343 L 166.7 238.343 L 166.7 245.883 L 166.7 245.883 C 166.7 246.123 166.743 246.346 166.83 246.553 L 166.83 246.553 L 166.83 246.553 C 166.923 246.76 167.047 246.94 167.2 247.093 L 167.2 247.093 L 167.2 247.093 C 167.36 247.253 167.543 247.376 167.75 247.463 L 167.75 247.463 L 167.75 247.463 C 167.963 247.556 168.19 247.603 168.43 247.603 L 168.43 247.603 L 169.75 247.603 L 169.75 248.973 ZM 180.412 245.683 L 180.412 245.683 L 180.412 245.683 C 180.412 246.163 180.319 246.62 180.132 247.053 L 180.132 247.053 L 180.132 247.053 C 179.952 247.48 179.702 247.853 179.382 248.173 L 179.382 248.173 L 179.382 248.173 C 179.062 248.493 178.685 248.746 178.252 248.933 L 178.252 248.933 L 178.252 248.933 C 177.825 249.113 177.369 249.203 176.882 249.203 L 176.882 249.203 L 175.922 249.203 L 175.922 249.203 C 175.435 249.203 174.979 249.113 174.552 248.933 L 174.552 248.933 L 174.552 248.933 C 174.119 248.746 173.742 248.493 173.422 248.173 L 173.422 248.173 L 173.422 248.173 C 173.102 247.853 172.852 247.48 172.672 247.053 L 172.672 247.053 L 172.672 247.053 C 172.485 246.62 172.392 246.163 172.392 245.683 L 172.392 245.683 L 172.392 240.263 L 172.392 240.263 C 172.392 239.783 172.485 239.326 172.672 238.893 L 172.672 238.893 L 172.672 238.893 C 172.852 238.466 173.102 238.093 173.422 237.773 L 173.422 237.773 L 173.422 237.773 C 173.742 237.453 174.119 237.2 174.552 237.013 L 174.552 237.013 L 174.552 237.013 C 174.979 236.833 175.435 236.743 175.922 236.743 L 175.922 236.743 L 176.882 236.743 L 176.882 236.743 C 177.369 236.743 177.825 236.833 178.252 237.013 L 178.252 237.013 L 178.252 237.013 C 178.685 237.2 179.062 237.453 179.382 237.773 L 179.382 237.773 L 179.382 237.773 C 179.702 238.093 179.952 238.466 180.132 238.893 L 180.132 238.893 L 180.132 238.893 C 180.319 239.326 180.412 239.783 180.412 240.263 L 180.412 240.263 L 180.412 245.683 Z M 178.972 245.763 L 178.972 240.183 L 178.972 240.183 C 178.972 239.896 178.915 239.626 178.802 239.373 L 178.802 239.373 L 178.802 239.373 C 178.695 239.12 178.549 238.896 178.362 238.703 L 178.362 238.703 L 178.362 238.703 C 178.175 238.516 177.952 238.37 177.692 238.263 L 177.692 238.263 L 177.692 238.263 C 177.439 238.15 177.169 238.093 176.882 238.093 L 176.882 238.093 L 175.922 238.093 L 175.922 238.093 C 175.635 238.093 175.362 238.15 175.102 238.263 L 175.102 238.263 L 175.102 238.263 C 174.849 238.37 174.629 238.516 174.442 238.703 L 174.442 238.703 L 174.442 238.703 C 174.255 238.896 174.109 239.12 174.002 239.373 L 174.002 239.373 L 174.002 239.373 C 173.889 239.626 173.832 239.896 173.832 240.183 L 173.832 240.183 L 173.832 245.763 L 173.832 245.763 C 173.832 246.05 173.889 246.32 174.002 246.573 L 174.002 246.573 L 174.002 246.573 C 174.109 246.826 174.255 247.05 174.442 247.243 L 174.442 247.243 L 174.442 247.243 C 174.629 247.43 174.849 247.576 175.102 247.683 L 175.102 247.683 L 175.102 247.683 C 175.362 247.79 175.635 247.843 175.922 247.843 L 175.922 247.843 L 176.882 247.843 L 176.882 247.843 C 177.169 247.843 177.439 247.79 177.692 247.683 L 177.692 247.683 L 177.692 247.683 C 177.952 247.576 178.175 247.43 178.362 247.243 L 178.362 247.243 L 178.362 247.243 C 178.549 247.05 178.695 246.826 178.802 246.573 L 178.802 246.573 L 178.802 246.573 C 178.915 246.32 178.972 246.05 178.972 245.763 L 178.972 245.763 ZM 188.26 238.343 L 186.82 238.343 L 186.82 238.343 C 186.533 238.343 186.26 238.4 186 238.513 L 186 238.513 L 186 238.513 C 185.747 238.62 185.527 238.766 185.34 238.953 L 185.34 238.953 L 185.34 238.953 C 185.153 239.14 185.007 239.36 184.9 239.613 L 184.9 239.613 L 184.9 239.613 C 184.787 239.866 184.73 240.14 184.73 240.433 L 184.73 240.433 L 184.73 248.973 L 183.29 248.973 L 183.29 236.973 L 183.77 236.973 L 184.56 238.193 L 184.56 238.193 C 184.887 237.746 185.297 237.393 185.79 237.133 L 185.79 237.133 L 185.79 237.133 C 186.29 236.873 186.833 236.743 187.42 236.743 L 187.42 236.743 L 188.26 236.743 L 188.26 238.343 ZM 192.22 247.173 L 191.03 252.333 L 190.42 252.333 L 190.42 247.173 L 192.22 247.173 ZM 208.876 245.683 L 208.876 245.683 L 208.876 245.683 C 208.876 246.163 208.782 246.62 208.596 247.053 L 208.596 247.053 L 208.596 247.053 C 208.416 247.48 208.166 247.853 207.846 248.173 L 207.846 248.173 L 207.846 248.173 C 207.526 248.493 207.149 248.746 206.716 248.933 L 206.716 248.933 L 206.716 248.933 C 206.289 249.113 205.832 249.203 205.346 249.203 L 205.346 249.203 L 204.986 249.203 L 204.986 249.203 C 204.446 249.203 203.946 249.096 203.486 248.883 L 203.486 248.883 L 203.486 248.883 C 203.026 248.663 202.629 248.356 202.296 247.963 L 202.296 247.963 L 202.296 253.773 L 200.856 253.773 L 200.856 236.973 L 201.336 236.973 L 202.126 238.193 L 202.126 238.193 C 202.452 237.746 202.862 237.393 203.356 237.133 L 203.356 237.133 L 203.356 237.133 C 203.856 236.873 204.399 236.743 204.986 236.743 L 204.986 236.743 L 205.346 236.743 L 205.346 236.743 C 205.832 236.743 206.289 236.833 206.716 237.013 L 206.716 237.013 L 206.716 237.013 C 207.149 237.2 207.526 237.453 207.846 237.773 L 207.846 237.773 L 207.846 237.773 C 208.166 238.093 208.416 238.466 208.596 238.893 L 208.596 238.893 L 208.596 238.893 C 208.782 239.326 208.876 239.783 208.876 240.263 L 208.876 240.263 L 208.876 245.683 Z M 207.436 245.763 L 207.436 240.183 L 207.436 240.183 C 207.436 239.896 207.379 239.626 207.266 239.373 L 207.266 239.373 L 207.266 239.373 C 207.159 239.12 207.012 238.896 206.826 238.703 L 206.826 238.703 L 206.826 238.703 C 206.639 238.516 206.416 238.37 206.156 238.263 L 206.156 238.263 L 206.156 238.263 C 205.902 238.15 205.632 238.093 205.346 238.093 L 205.346 238.093 L 204.386 238.093 L 204.386 238.093 C 204.099 238.093 203.826 238.15 203.566 238.263 L 203.566 238.263 L 203.566 238.263 C 203.312 238.37 203.092 238.516 202.906 238.703 L 202.906 238.703 L 202.906 238.703 C 202.719 238.896 202.572 239.12 202.466 239.373 L 202.466 239.373 L 202.466 239.373 C 202.352 239.626 202.296 239.896 202.296 240.183 L 202.296 240.183 L 202.296 245.763 L 202.296 245.763 C 202.296 246.05 202.352 246.32 202.466 246.573 L 202.466 246.573 L 202.466 246.573 C 202.572 246.826 202.719 247.05 202.906 247.243 L 202.906 247.243 L 202.906 247.243 C 203.092 247.43 203.312 247.576 203.566 247.683 L 203.566 247.683 L 203.566 247.683 C 203.826 247.79 204.099 247.843 204.386 247.843 L 204.386 247.843 L 205.346 247.843 L 205.346 247.843 C 205.632 247.843 205.902 247.79 206.156 247.683 L 206.156 247.683 L 206.156 247.683 C 206.416 247.576 206.639 247.43 206.826 247.243 L 206.826 247.243 L 206.826 247.243 C 207.012 247.05 207.159 246.826 207.266 246.573 L 207.266 246.573 L 207.266 246.573 C 207.379 246.32 207.436 246.05 207.436 245.763 L 207.436 245.763 ZM 216.724 238.343 L 215.284 238.343 L 215.284 238.343 C 214.997 238.343 214.724 238.4 214.464 238.513 L 214.464 238.513 L 214.464 238.513 C 214.21 238.62 213.99 238.766 213.804 238.953 L 213.804 238.953 L 213.804 238.953 C 213.617 239.14 213.47 239.36 213.364 239.613 L 213.364 239.613 L 213.364 239.613 C 213.25 239.866 213.194 240.14 213.194 240.433 L 213.194 240.433 L 213.194 248.973 L 211.754 248.973 L 211.754 236.973 L 212.234 236.973 L 213.024 238.193 L 213.024 238.193 C 213.35 237.746 213.76 237.393 214.254 237.133 L 214.254 237.133 L 214.254 237.133 C 214.754 236.873 215.297 236.743 215.884 236.743 L 215.884 236.743 L 216.724 236.743 L 216.724 238.343 ZM 226.664 245.683 L 226.664 245.683 L 226.664 245.683 C 226.664 246.163 226.571 246.62 226.384 247.053 L 226.384 247.053 L 226.384 247.053 C 226.204 247.48 225.954 247.853 225.634 248.173 L 225.634 248.173 L 225.634 248.173 C 225.314 248.493 224.937 248.746 224.504 248.933 L 224.504 248.933 L 224.504 248.933 C 224.077 249.113 223.621 249.203 223.134 249.203 L 223.134 249.203 L 222.174 249.203 L 222.174 249.203 C 221.687 249.203 221.231 249.113 220.804 248.933 L 220.804 248.933 L 220.804 248.933 C 220.371 248.746 219.994 248.493 219.674 248.173 L 219.674 248.173 L 219.674 248.173 C 219.354 247.853 219.104 247.48 218.924 247.053 L 218.924 247.053 L 218.924 247.053 C 218.737 246.62 218.644 246.163 218.644 245.683 L 218.644 245.683 L 218.644 240.263 L 218.644 240.263 C 218.644 239.783 218.737 239.326 218.924 238.893 L 218.924 238.893 L 218.924 238.893 C 219.104 238.466 219.354 238.093 219.674 237.773 L 219.674 237.773 L 219.674 237.773 C 219.994 237.453 220.371 237.2 220.804 237.013 L 220.804 237.013 L 220.804 237.013 C 221.231 236.833 221.687 236.743 222.174 236.743 L 222.174 236.743 L 223.134 236.743 L 223.134 236.743 C 223.621 236.743 224.077 236.833 224.504 237.013 L 224.504 237.013 L 224.504 237.013 C 224.937 237.2 225.314 237.453 225.634 237.773 L 225.634 237.773 L 225.634 237.773 C 225.954 238.093 226.204 238.466 226.384 238.893 L 226.384 238.893 L 226.384 238.893 C 226.571 239.326 226.664 239.783 226.664 240.263 L 226.664 240.263 L 226.664 245.683 Z M 225.224 245.763 L 225.224 240.183 L 225.224 240.183 C 225.224 239.896 225.167 239.626 225.054 239.373 L 225.054 239.373 L 225.054 239.373 C 224.947 239.12 224.801 238.896 224.614 238.703 L 224.614 238.703 L 224.614 238.703 C 224.427 238.516 224.204 238.37 223.944 238.263 L 223.944 238.263 L 223.944 238.263 C 223.691 238.15 223.421 238.093 223.134 238.093 L 223.134 238.093 L 222.174 238.093 L 222.174 238.093 C 221.887 238.093 221.614 238.15 221.354 238.263 L 221.354 238.263 L 221.354 238.263 C 221.101 238.37 220.881 238.516 220.694 238.703 L 220.694 238.703 L 220.694 238.703 C 220.507 238.896 220.361 239.12 220.254 239.373 L 220.254 239.373 L 220.254 239.373 C 220.141 239.626 220.084 239.896 220.084 240.183 L 220.084 240.183 L 220.084 245.763 L 220.084 245.763 C 220.084 246.05 220.141 246.32 220.254 246.573 L 220.254 246.573 L 220.254 246.573 C 220.361 246.826 220.507 247.05 220.694 247.243 L 220.694 247.243 L 220.694 247.243 C 220.881 247.43 221.101 247.576 221.354 247.683 L 221.354 247.683 L 221.354 247.683 C 221.614 247.79 221.887 247.843 222.174 247.843 L 222.174 247.843 L 223.134 247.843 L 223.134 247.843 C 223.421 247.843 223.691 247.79 223.944 247.683 L 223.944 247.683 L 223.944 247.683 C 224.204 247.576 224.427 247.43 224.614 247.243 L 224.614 247.243 L 224.614 247.243 C 224.801 247.05 224.947 246.826 225.054 246.573 L 225.054 246.573 L 225.054 246.573 C 225.167 246.32 225.224 246.05 225.224 245.763 L 225.224 245.763 ZM 237.562 245.683 L 237.562 245.683 L 237.562 245.683 C 237.562 246.163 237.469 246.62 237.282 247.053 L 237.282 247.053 L 237.282 247.053 C 237.102 247.48 236.852 247.853 236.532 248.173 L 236.532 248.173 L 236.532 248.173 C 236.212 248.493 235.835 248.746 235.402 248.933 L 235.402 248.933 L 235.402 248.933 C 234.975 249.113 234.519 249.203 234.032 249.203 L 234.032 249.203 L 233.072 249.203 L 233.072 249.203 C 232.585 249.203 232.129 249.113 231.702 248.933 L 231.702 248.933 L 231.702 248.933 C 231.269 248.746 230.892 248.493 230.572 248.173 L 230.572 248.173 L 230.572 248.173 C 230.252 247.853 230.002 247.48 229.822 247.053 L 229.822 247.053 L 229.822 247.053 C 229.635 246.62 229.542 246.163 229.542 245.683 L 229.542 245.683 L 229.542 232.173 L 230.982 232.173 L 230.982 237.983 L 230.982 237.983 C 231.315 237.59 231.712 237.283 232.172 237.063 L 232.172 237.063 L 232.172 237.063 C 232.632 236.85 233.132 236.743 233.672 236.743 L 233.672 236.743 L 234.032 236.743 L 234.032 236.743 C 234.519 236.743 234.975 236.833 235.402 237.013 L 235.402 237.013 L 235.402 237.013 C 235.835 237.2 236.212 237.453 236.532 237.773 L 236.532 237.773 L 236.532 237.773 C 236.852 238.093 237.102 238.466 237.282 238.893 L 237.282 238.893 L 237.282 238.893 C 237.469 239.326 237.562 239.783 237.562 240.263 L 237.562 240.263 L 237.562 245.683 Z M 236.122 245.763 L 236.122 240.183 L 236.122 240.183 C 236.122 239.896 236.065 239.626 235.952 239.373 L 235.952 239.373 L 235.952 239.373 C 235.845 239.12 235.699 238.896 235.512 238.703 L 235.512 238.703 L 235.512 238.703 C 235.325 238.516 235.102 238.37 234.842 238.263 L 234.842 238.263 L 234.842 238.263 C 234.589 238.15 234.319 238.093 234.032 238.093 L 234.032 238.093 L 233.072 238.093 L 233.072 238.093 C 232.785 238.093 232.512 238.15 232.252 238.263 L 232.252 238.263 L 232.252 238.263 C 231.999 238.37 231.779 238.516 231.592 238.703 L 231.592 238.703 L 231.592 238.703 C 231.405 238.896 231.259 239.12 231.152 239.373 L 231.152 239.373 L 231.152 239.373 C 231.039 239.626 230.982 239.896 230.982 240.183 L 230.982 240.183 L 230.982 245.763 L 230.982 245.763 C 230.982 246.05 231.039 246.32 231.152 246.573 L 231.152 246.573 L 231.152 246.573 C 231.259 246.826 231.405 247.05 231.592 247.243 L 231.592 247.243 L 231.592 247.243 C 231.779 247.43 231.999 247.576 232.252 247.683 L 232.252 247.683 L 232.252 247.683 C 232.512 247.79 232.785 247.843 233.072 247.843 L 233.072 247.843 L 234.032 247.843 L 234.032 247.843 C 234.319 247.843 234.589 247.79 234.842 247.683 L 234.842 247.683 L 234.842 247.683 C 235.102 247.576 235.325 247.43 235.512 247.243 L 235.512 247.243 L 235.512 247.243 C 235.699 247.05 235.845 246.826 235.952 246.573 L 235.952 246.573 L 235.952 246.573 C 236.065 246.32 236.122 246.05 236.122 245.763 L 236.122 245.763 ZM 248.46 248.973 L 247.98 248.973 L 247.18 247.773 L 247.18 247.773 C 246.853 248.206 246.443 248.553 245.95 248.813 L 245.95 248.813 L 245.95 248.813 C 245.457 249.073 244.917 249.203 244.33 249.203 L 244.33 249.203 L 243.97 249.203 L 243.97 249.203 C 243.483 249.203 243.027 249.113 242.6 248.933 L 242.6 248.933 L 242.6 248.933 C 242.167 248.746 241.79 248.493 241.47 248.173 L 241.47 248.173 L 241.47 248.173 C 241.15 247.853 240.9 247.48 240.72 247.053 L 240.72 247.053 L 240.72 247.053 C 240.533 246.62 240.44 246.163 240.44 245.683 L 240.44 245.683 L 240.44 245.563 L 240.44 245.563 C 240.44 245.076 240.533 244.62 240.72 244.193 L 240.72 244.193 L 240.72 244.193 C 240.9 243.76 241.15 243.383 241.47 243.063 L 241.47 243.063 L 241.47 243.063 C 241.79 242.743 242.167 242.493 242.6 242.313 L 242.6 242.313 L 242.6 242.313 C 243.027 242.126 243.483 242.033 243.97 242.033 L 243.97 242.033 L 247.02 242.033 L 247.02 240.183 L 247.02 240.183 C 247.02 239.896 246.963 239.626 246.85 239.373 L 246.85 239.373 L 246.85 239.373 C 246.743 239.12 246.597 238.896 246.41 238.703 L 246.41 238.703 L 246.41 238.703 C 246.223 238.516 246 238.37 245.74 238.263 L 245.74 238.263 L 245.74 238.263 C 245.487 238.15 245.217 238.093 244.93 238.093 L 244.93 238.093 L 244.09 238.093 L 244.09 238.093 C 243.797 238.093 243.523 238.15 243.27 238.263 L 243.27 238.263 L 243.27 238.263 C 243.017 238.37 242.797 238.516 242.61 238.703 L 242.61 238.703 L 242.61 238.703 C 242.423 238.896 242.273 239.12 242.16 239.373 L 242.16 239.373 L 242.16 239.373 C 242.053 239.626 242 239.896 242 240.183 L 242 240.183 L 242 240.613 L 240.56 240.383 L 240.56 240.263 L 240.56 240.263 C 240.56 239.783 240.65 239.326 240.83 238.893 L 240.83 238.893 L 240.83 238.893 C 241.017 238.466 241.27 238.093 241.59 237.773 L 241.59 237.773 L 241.59 237.773 C 241.91 237.453 242.283 237.2 242.71 237.013 L 242.71 237.013 L 242.71 237.013 C 243.143 236.833 243.603 236.743 244.09 236.743 L 244.09 236.743 L 244.93 236.743 L 244.93 236.743 C 245.417 236.743 245.873 236.833 246.3 237.013 L 246.3 237.013 L 246.3 237.013 C 246.733 237.2 247.11 237.453 247.43 237.773 L 247.43 237.773 L 247.43 237.773 C 247.75 238.093 248 238.466 248.18 238.893 L 248.18 238.893 L 248.18 238.893 C 248.367 239.326 248.46 239.783 248.46 240.263 L 248.46 240.263 L 248.46 248.973 Z M 247.02 245.763 L 247.02 243.163 L 243.97 243.163 L 243.97 243.163 C 243.683 243.163 243.41 243.216 243.15 243.323 L 243.15 243.323 L 243.15 243.323 C 242.897 243.436 242.677 243.586 242.49 243.773 L 242.49 243.773 L 242.49 243.773 C 242.303 243.966 242.157 244.19 242.05 244.443 L 242.05 244.443 L 242.05 244.443 C 241.937 244.696 241.88 244.97 241.88 245.263 L 241.88 245.263 L 241.88 245.763 L 241.88 245.763 C 241.88 246.05 241.937 246.32 242.05 246.573 L 242.05 246.573 L 242.05 246.573 C 242.157 246.826 242.303 247.05 242.49 247.243 L 242.49 247.243 L 242.49 247.243 C 242.677 247.43 242.897 247.576 243.15 247.683 L 243.15 247.683 L 243.15 247.683 C 243.41 247.79 243.683 247.843 243.97 247.843 L 243.97 247.843 L 244.93 247.843 L 244.93 247.843 C 245.217 247.843 245.487 247.79 245.74 247.683 L 245.74 247.683 L 245.74 247.683 C 246 247.576 246.223 247.43 246.41 247.243 L 246.41 247.243 L 246.41 247.243 C 246.597 247.05 246.743 246.826 246.85 246.573 L 246.85 246.573 L 246.85 246.573 C 246.963 246.32 247.02 246.05 247.02 245.763 L 247.02 245.763 ZM 259.358 245.683 L 259.358 245.683 L 259.358 245.683 C 259.358 246.163 259.265 246.62 259.078 247.053 L 259.078 247.053 L 259.078 247.053 C 258.898 247.48 258.648 247.853 258.328 248.173 L 258.328 248.173 L 258.328 248.173 C 258.008 248.493 257.631 248.746 257.198 248.933 L 257.198 248.933 L 257.198 248.933 C 256.771 249.113 256.315 249.203 255.828 249.203 L 255.828 249.203 L 254.868 249.203 L 254.868 249.203 C 254.381 249.203 253.925 249.113 253.498 248.933 L 253.498 248.933 L 253.498 248.933 C 253.065 248.746 252.688 248.493 252.368 248.173 L 252.368 248.173 L 252.368 248.173 C 252.048 247.853 251.798 247.48 251.618 247.053 L 251.618 247.053 L 251.618 247.053 C 251.431 246.62 251.338 246.163 251.338 245.683 L 251.338 245.683 L 251.338 232.173 L 252.778 232.173 L 252.778 237.983 L 252.778 237.983 C 253.111 237.59 253.508 237.283 253.968 237.063 L 253.968 237.063 L 253.968 237.063 C 254.428 236.85 254.928 236.743 255.468 236.743 L 255.468 236.743 L 255.828 236.743 L 255.828 236.743 C 256.315 236.743 256.771 236.833 257.198 237.013 L 257.198 237.013 L 257.198 237.013 C 257.631 237.2 258.008 237.453 258.328 237.773 L 258.328 237.773 L 258.328 237.773 C 258.648 238.093 258.898 238.466 259.078 238.893 L 259.078 238.893 L 259.078 238.893 C 259.265 239.326 259.358 239.783 259.358 240.263 L 259.358 240.263 L 259.358 245.683 Z M 257.918 245.763 L 257.918 240.183 L 257.918 240.183 C 257.918 239.896 257.861 239.626 257.748 239.373 L 257.748 239.373 L 257.748 239.373 C 257.641 239.12 257.495 238.896 257.308 238.703 L 257.308 238.703 L 257.308 238.703 C 257.121 238.516 256.898 238.37 256.638 238.263 L 256.638 238.263 L 256.638 238.263 C 256.385 238.15 256.115 238.093 255.828 238.093 L 255.828 238.093 L 254.868 238.093 L 254.868 238.093 C 254.581 238.093 254.308 238.15 254.048 238.263 L 254.048 238.263 L 254.048 238.263 C 253.795 238.37 253.575 238.516 253.388 238.703 L 253.388 238.703 L 253.388 238.703 C 253.201 238.896 253.055 239.12 252.948 239.373 L 252.948 239.373 L 252.948 239.373 C 252.835 239.626 252.778 239.896 252.778 240.183 L 252.778 240.183 L 252.778 245.763 L 252.778 245.763 C 252.778 246.05 252.835 246.32 252.948 246.573 L 252.948 246.573 L 252.948 246.573 C 253.055 246.826 253.201 247.05 253.388 247.243 L 253.388 247.243 L 253.388 247.243 C 253.575 247.43 253.795 247.576 254.048 247.683 L 254.048 247.683 L 254.048 247.683 C 254.308 247.79 254.581 247.843 254.868 247.843 L 254.868 247.843 L 255.828 247.843 L 255.828 247.843 C 256.115 247.843 256.385 247.79 256.638 247.683 L 256.638 247.683 L 256.638 247.683 C 256.898 247.576 257.121 247.43 257.308 247.243 L 257.308 247.243 L 257.308 247.243 C 257.495 247.05 257.641 246.826 257.748 246.573 L 257.748 246.573 L 257.748 246.573 C 257.861 246.32 257.918 246.05 257.918 245.763 L 257.918 245.763 ZM 264.156 248.973 L 262.716 248.973 L 262.716 232.173 L 264.156 232.173 L 264.156 248.973 ZM 275.541 236.973 L 269.471 253.773 L 268.071 253.773 L 270.211 247.943 L 266.311 236.973 L 267.761 236.973 L 270.881 246.063 L 270.931 246.683 L 270.981 246.063 L 274.101 236.973 L 275.541 236.973 Z" transform="matrix(0.5809699296951294, 0, 0, 0.48509901762008667, 173.62118530273438, 119.59033203125)" style="fill: rgb(51, 51, 51); stroke: rgb(51, 51, 51); white-space: pre;"/>
  <path d="M 287.947 233.543 L 286.627 233.543 L 286.627 233.543 C 286.38 233.543 286.153 233.586 285.947 233.673 L 285.947 233.673 L 285.947 233.673 C 285.74 233.766 285.56 233.89 285.407 234.043 L 285.407 234.043 L 285.407 234.043 C 285.247 234.196 285.123 234.38 285.037 234.593 L 285.037 234.593 L 285.037 234.593 C 284.943 234.806 284.897 235.033 284.897 235.273 L 284.897 235.273 L 284.897 236.973 L 287.697 236.973 L 287.697 238.343 L 284.897 238.343 L 284.897 248.973 L 283.457 248.973 L 283.457 238.343 L 281.287 238.343 L 281.287 236.973 L 283.457 236.973 L 283.457 235.343 L 283.457 235.343 C 283.457 234.903 283.54 234.49 283.707 234.103 L 283.707 234.103 L 283.707 234.103 C 283.867 233.716 284.093 233.38 284.387 233.093 L 284.387 233.093 L 284.387 233.093 C 284.673 232.806 285.01 232.58 285.397 232.413 L 285.397 232.413 L 285.397 232.413 C 285.777 232.253 286.187 232.173 286.627 232.173 L 286.627 232.173 L 287.947 232.173 L 287.947 233.543 ZM 297.407 245.683 L 297.407 245.683 L 297.407 245.683 C 297.407 246.163 297.314 246.62 297.127 247.053 L 297.127 247.053 L 297.127 247.053 C 296.947 247.48 296.697 247.853 296.377 248.173 L 296.377 248.173 L 296.377 248.173 C 296.057 248.493 295.68 248.746 295.247 248.933 L 295.247 248.933 L 295.247 248.933 C 294.82 249.113 294.364 249.203 293.877 249.203 L 293.877 249.203 L 292.917 249.203 L 292.917 249.203 C 292.43 249.203 291.974 249.113 291.547 248.933 L 291.547 248.933 L 291.547 248.933 C 291.114 248.746 290.737 248.493 290.417 248.173 L 290.417 248.173 L 290.417 248.173 C 290.097 247.853 289.847 247.48 289.667 247.053 L 289.667 247.053 L 289.667 247.053 C 289.48 246.62 289.387 246.163 289.387 245.683 L 289.387 245.683 L 289.387 240.263 L 289.387 240.263 C 289.387 239.783 289.48 239.326 289.667 238.893 L 289.667 238.893 L 289.667 238.893 C 289.847 238.466 290.097 238.093 290.417 237.773 L 290.417 237.773 L 290.417 237.773 C 290.737 237.453 291.114 237.2 291.547 237.013 L 291.547 237.013 L 291.547 237.013 C 291.974 236.833 292.43 236.743 292.917 236.743 L 292.917 236.743 L 293.877 236.743 L 293.877 236.743 C 294.364 236.743 294.82 236.833 295.247 237.013 L 295.247 237.013 L 295.247 237.013 C 295.68 237.2 296.057 237.453 296.377 237.773 L 296.377 237.773 L 296.377 237.773 C 296.697 238.093 296.947 238.466 297.127 238.893 L 297.127 238.893 L 297.127 238.893 C 297.314 239.326 297.407 239.783 297.407 240.263 L 297.407 240.263 L 297.407 245.683 Z M 295.967 245.763 L 295.967 240.183 L 295.967 240.183 C 295.967 239.896 295.91 239.626 295.797 239.373 L 295.797 239.373 L 295.797 239.373 C 295.69 239.12 295.544 238.896 295.357 238.703 L 295.357 238.703 L 295.357 238.703 C 295.17 238.516 294.947 238.37 294.687 238.263 L 294.687 238.263 L 294.687 238.263 C 294.434 238.15 294.164 238.093 293.877 238.093 L 293.877 238.093 L 292.917 238.093 L 292.917 238.093 C 292.63 238.093 292.357 238.15 292.097 238.263 L 292.097 238.263 L 292.097 238.263 C 291.844 238.37 291.624 238.516 291.437 238.703 L 291.437 238.703 L 291.437 238.703 C 291.25 238.896 291.104 239.12 290.997 239.373 L 290.997 239.373 L 290.997 239.373 C 290.884 239.626 290.827 239.896 290.827 240.183 L 290.827 240.183 L 290.827 245.763 L 290.827 245.763 C 290.827 246.05 290.884 246.32 290.997 246.573 L 290.997 246.573 L 290.997 246.573 C 291.104 246.826 291.25 247.05 291.437 247.243 L 291.437 247.243 L 291.437 247.243 C 291.624 247.43 291.844 247.576 292.097 247.683 L 292.097 247.683 L 292.097 247.683 C 292.357 247.79 292.63 247.843 292.917 247.843 L 292.917 247.843 L 293.877 247.843 L 293.877 247.843 C 294.164 247.843 294.434 247.79 294.687 247.683 L 294.687 247.683 L 294.687 247.683 C 294.947 247.576 295.17 247.43 295.357 247.243 L 295.357 247.243 L 295.357 247.243 C 295.544 247.05 295.69 246.826 295.797 246.573 L 295.797 246.573 L 295.797 246.573 C 295.91 246.32 295.967 246.05 295.967 245.763 L 295.967 245.763 ZM 305.255 238.343 L 303.815 238.343 L 303.815 238.343 C 303.528 238.343 303.255 238.4 302.995 238.513 L 302.995 238.513 L 302.995 238.513 C 302.742 238.62 302.522 238.766 302.335 238.953 L 302.335 238.953 L 302.335 238.953 C 302.148 239.14 302.002 239.36 301.895 239.613 L 301.895 239.613 L 301.895 239.613 C 301.782 239.866 301.725 240.14 301.725 240.433 L 301.725 240.433 L 301.725 248.973 L 300.285 248.973 L 300.285 236.973 L 300.765 236.973 L 301.555 238.193 L 301.555 238.193 C 301.882 237.746 302.292 237.393 302.785 237.133 L 302.785 237.133 L 302.785 237.133 C 303.285 236.873 303.828 236.743 304.415 236.743 L 304.415 236.743 L 305.255 236.743 L 305.255 238.343 ZM 315.195 245.683 L 315.195 245.683 L 315.195 245.683 C 315.195 246.163 315.102 246.62 314.915 247.053 L 314.915 247.053 L 314.915 247.053 C 314.735 247.48 314.485 247.853 314.165 248.173 L 314.165 248.173 L 314.165 248.173 C 313.845 248.493 313.469 248.746 313.035 248.933 L 313.035 248.933 L 313.035 248.933 C 312.609 249.113 312.152 249.203 311.665 249.203 L 311.665 249.203 L 310.705 249.203 L 310.705 249.203 C 310.219 249.203 309.762 249.113 309.335 248.933 L 309.335 248.933 L 309.335 248.933 C 308.902 248.746 308.525 248.493 308.205 248.173 L 308.205 248.173 L 308.205 248.173 C 307.885 247.853 307.635 247.48 307.455 247.053 L 307.455 247.053 L 307.455 247.053 C 307.269 246.62 307.175 246.163 307.175 245.683 L 307.175 245.683 L 307.175 240.263 L 307.175 240.263 C 307.175 239.783 307.269 239.326 307.455 238.893 L 307.455 238.893 L 307.455 238.893 C 307.635 238.466 307.885 238.093 308.205 237.773 L 308.205 237.773 L 308.205 237.773 C 308.525 237.453 308.902 237.2 309.335 237.013 L 309.335 237.013 L 309.335 237.013 C 309.762 236.833 310.219 236.743 310.705 236.743 L 310.705 236.743 L 311.665 236.743 L 311.665 236.743 C 312.152 236.743 312.609 236.833 313.035 237.013 L 313.035 237.013 L 313.035 237.013 C 313.469 237.2 313.845 237.453 314.165 237.773 L 314.165 237.773 L 314.165 237.773 C 314.485 238.093 314.735 238.466 314.915 238.893 L 314.915 238.893 L 314.915 238.893 C 315.102 239.326 315.195 239.783 315.195 240.263 L 315.195 240.263 L 315.195 243.093 L 308.615 243.093 L 308.615 245.763 L 308.615 245.763 C 308.615 246.05 308.672 246.32 308.785 246.573 L 308.785 246.573 L 308.785 246.573 C 308.892 246.826 309.039 247.05 309.225 247.243 L 309.225 247.243 L 309.225 247.243 C 309.412 247.43 309.632 247.576 309.885 247.683 L 309.885 247.683 L 309.885 247.683 C 310.145 247.79 310.419 247.843 310.705 247.843 L 310.705 247.843 L 311.665 247.843 L 311.665 247.843 C 311.952 247.843 312.222 247.79 312.475 247.683 L 312.475 247.683 L 312.475 247.683 C 312.735 247.576 312.959 247.43 313.145 247.243 L 313.145 247.243 L 313.145 247.243 C 313.332 247.05 313.479 246.826 313.585 246.573 L 313.585 246.573 L 313.585 246.573 C 313.699 246.32 313.755 246.05 313.755 245.763 L 313.755 245.763 L 313.755 244.963 L 315.195 245.203 L 315.195 245.683 Z M 313.755 241.963 L 313.755 240.183 L 313.755 240.183 C 313.755 239.896 313.699 239.626 313.585 239.373 L 313.585 239.373 L 313.585 239.373 C 313.479 239.12 313.332 238.896 313.145 238.703 L 313.145 238.703 L 313.145 238.703 C 312.959 238.516 312.735 238.37 312.475 238.263 L 312.475 238.263 L 312.475 238.263 C 312.222 238.15 311.952 238.093 311.665 238.093 L 311.665 238.093 L 310.705 238.093 L 310.705 238.093 C 310.419 238.093 310.145 238.15 309.885 238.263 L 309.885 238.263 L 309.885 238.263 C 309.632 238.37 309.412 238.516 309.225 238.703 L 309.225 238.703 L 309.225 238.703 C 309.039 238.896 308.892 239.12 308.785 239.373 L 308.785 239.373 L 308.785 239.373 C 308.672 239.626 308.615 239.896 308.615 240.183 L 308.615 240.183 L 308.615 241.963 L 313.755 241.963 ZM 326.093 236.973 L 321.833 248.973 L 321.123 248.973 L 316.863 236.973 L 318.313 236.973 L 321.433 246.063 L 321.483 246.683 L 321.533 246.063 L 324.653 236.973 L 326.093 236.973 ZM 335.784 245.683 L 335.784 245.683 L 335.784 245.683 C 335.784 246.163 335.691 246.62 335.504 247.053 L 335.504 247.053 L 335.504 247.053 C 335.324 247.48 335.074 247.853 334.754 248.173 L 334.754 248.173 L 334.754 248.173 C 334.434 248.493 334.058 248.746 333.624 248.933 L 333.624 248.933 L 333.624 248.933 C 333.198 249.113 332.741 249.203 332.254 249.203 L 332.254 249.203 L 331.294 249.203 L 331.294 249.203 C 330.808 249.203 330.351 249.113 329.924 248.933 L 329.924 248.933 L 329.924 248.933 C 329.491 248.746 329.115 248.493 328.794 248.173 L 328.794 248.173 L 328.794 248.173 C 328.474 247.853 328.224 247.48 328.044 247.053 L 328.044 247.053 L 328.044 247.053 C 327.858 246.62 327.764 246.163 327.764 245.683 L 327.764 245.683 L 327.764 240.263 L 327.764 240.263 C 327.764 239.783 327.858 239.326 328.044 238.893 L 328.044 238.893 L 328.044 238.893 C 328.224 238.466 328.474 238.093 328.794 237.773 L 328.794 237.773 L 328.794 237.773 C 329.115 237.453 329.491 237.2 329.924 237.013 L 329.924 237.013 L 329.924 237.013 C 330.351 236.833 330.808 236.743 331.294 236.743 L 331.294 236.743 L 332.254 236.743 L 332.254 236.743 C 332.741 236.743 333.198 236.833 333.624 237.013 L 333.624 237.013 L 333.624 237.013 C 334.058 237.2 334.434 237.453 334.754 237.773 L 334.754 237.773 L 334.754 237.773 C 335.074 238.093 335.324 238.466 335.504 238.893 L 335.504 238.893 L 335.504 238.893 C 335.691 239.326 335.784 239.783 335.784 240.263 L 335.784 240.263 L 335.784 243.093 L 329.204 243.093 L 329.204 245.763 L 329.204 245.763 C 329.204 246.05 329.261 246.32 329.374 246.573 L 329.374 246.573 L 329.374 246.573 C 329.481 246.826 329.628 247.05 329.814 247.243 L 329.814 247.243 L 329.814 247.243 C 330.001 247.43 330.221 247.576 330.474 247.683 L 330.474 247.683 L 330.474 247.683 C 330.734 247.79 331.008 247.843 331.294 247.843 L 331.294 247.843 L 332.254 247.843 L 332.254 247.843 C 332.541 247.843 332.811 247.79 333.064 247.683 L 333.064 247.683 L 333.064 247.683 C 333.324 247.576 333.548 247.43 333.734 247.243 L 333.734 247.243 L 333.734 247.243 C 333.921 247.05 334.068 246.826 334.174 246.573 L 334.174 246.573 L 334.174 246.573 C 334.288 246.32 334.344 246.05 334.344 245.763 L 334.344 245.763 L 334.344 244.963 L 335.784 245.203 L 335.784 245.683 Z M 334.344 241.963 L 334.344 240.183 L 334.344 240.183 C 334.344 239.896 334.288 239.626 334.174 239.373 L 334.174 239.373 L 334.174 239.373 C 334.068 239.12 333.921 238.896 333.734 238.703 L 333.734 238.703 L 333.734 238.703 C 333.548 238.516 333.324 238.37 333.064 238.263 L 333.064 238.263 L 333.064 238.263 C 332.811 238.15 332.541 238.093 332.254 238.093 L 332.254 238.093 L 331.294 238.093 L 331.294 238.093 C 331.008 238.093 330.734 238.15 330.474 238.263 L 330.474 238.263 L 330.474 238.263 C 330.221 238.37 330.001 238.516 329.814 238.703 L 329.814 238.703 L 329.814 238.703 C 329.628 238.896 329.481 239.12 329.374 239.373 L 329.374 239.373 L 329.374 239.373 C 329.261 239.626 329.204 239.896 329.204 240.183 L 329.204 240.183 L 329.204 241.963 L 334.344 241.963 ZM 343.633 238.343 L 342.193 238.343 L 342.193 238.343 C 341.906 238.343 341.633 238.4 341.372 238.513 L 341.372 238.513 L 341.372 238.513 C 341.119 238.62 340.899 238.766 340.712 238.953 L 340.712 238.953 L 340.712 238.953 C 340.526 239.14 340.379 239.36 340.272 239.613 L 340.272 239.613 L 340.272 239.613 C 340.159 239.866 340.103 240.14 340.103 240.433 L 340.103 240.433 L 340.103 248.973 L 338.663 248.973 L 338.663 236.973 L 339.143 236.973 L 339.932 238.193 L 339.932 238.193 C 340.259 237.746 340.669 237.393 341.163 237.133 L 341.163 237.133 L 341.163 237.133 C 341.663 236.873 342.206 236.743 342.793 236.743 L 342.793 236.743 L 343.633 236.743 L 343.633 238.343 Z" transform="matrix(0.5809699296951294, 0, 0, 0.48509901762008667, 173.62118530273438, 119.59033203125)" style="fill: rgb(51, 51, 51); stroke: rgb(187, 35, 15); white-space: pre;"/>
  <line style="stroke: rgb(216, 216, 216);" x1="201.232" y1="247.193" x2="428.132" y2="246.166"/>
  <path d="M -177.702 232.421 L -163.327 249.261 L -192.077 249.261 L -177.702 232.421 Z" style="fill: rgb(216, 216, 216);" transform="matrix(0, 1, 1.000001, 0, -74.975064, 426.003235)" bx:shape="triangle -192.077 232.421 28.75 16.84 0.5 0 1@e33d6007"/>
  <path d="M -177.702 282.016 L -163.327 302.449 L -192.077 302.449 L -177.702 282.016 Z" style="fill: rgb(216, 216, 216);" transform="matrix(0, -1, -1, 0, 738.860413, 68.464355)" bx:shape="triangle -192.077 282.016 28.75 20.433 0.5 0 1@9ecfbc03"/>
  <path d="M 59.931 232.173 L 55.621 240.933 L 55.621 248.973 L 54.111 248.973 L 54.111 240.953 L 49.761 232.173 L 51.391 232.173 L 54.851 239.153 L 58.301 232.173 L 59.931 232.173 ZM 69.873 245.683 L 69.873 245.683 L 69.873 245.683 C 69.873 246.163 69.78 246.62 69.593 247.053 L 69.593 247.053 L 69.593 247.053 C 69.413 247.48 69.163 247.853 68.843 248.173 L 68.843 248.173 L 68.843 248.173 C 68.523 248.493 68.147 248.746 67.713 248.933 L 67.713 248.933 L 67.713 248.933 C 67.287 249.113 66.83 249.203 66.343 249.203 L 66.343 249.203 L 65.383 249.203 L 65.383 249.203 C 64.897 249.203 64.44 249.113 64.013 248.933 L 64.013 248.933 L 64.013 248.933 C 63.58 248.746 63.203 248.493 62.883 248.173 L 62.883 248.173 L 62.883 248.173 C 62.563 247.853 62.313 247.48 62.133 247.053 L 62.133 247.053 L 62.133 247.053 C 61.947 246.62 61.853 246.163 61.853 245.683 L 61.853 245.683 L 61.853 240.263 L 61.853 240.263 C 61.853 239.783 61.947 239.326 62.133 238.893 L 62.133 238.893 L 62.133 238.893 C 62.313 238.466 62.563 238.093 62.883 237.773 L 62.883 237.773 L 62.883 237.773 C 63.203 237.453 63.58 237.2 64.013 237.013 L 64.013 237.013 L 64.013 237.013 C 64.44 236.833 64.897 236.743 65.383 236.743 L 65.383 236.743 L 66.343 236.743 L 66.343 236.743 C 66.83 236.743 67.287 236.833 67.713 237.013 L 67.713 237.013 L 67.713 237.013 C 68.147 237.2 68.523 237.453 68.843 237.773 L 68.843 237.773 L 68.843 237.773 C 69.163 238.093 69.413 238.466 69.593 238.893 L 69.593 238.893 L 69.593 238.893 C 69.78 239.326 69.873 239.783 69.873 240.263 L 69.873 240.263 L 69.873 245.683 Z M 68.433 245.763 L 68.433 240.183 L 68.433 240.183 C 68.433 239.896 68.377 239.626 68.263 239.373 L 68.263 239.373 L 68.263 239.373 C 68.157 239.12 68.01 238.896 67.823 238.703 L 67.823 238.703 L 67.823 238.703 C 67.637 238.516 67.413 238.37 67.153 238.263 L 67.153 238.263 L 67.153 238.263 C 66.9 238.15 66.63 238.093 66.343 238.093 L 66.343 238.093 L 65.383 238.093 L 65.383 238.093 C 65.097 238.093 64.823 238.15 64.563 238.263 L 64.563 238.263 L 64.563 238.263 C 64.31 238.37 64.09 238.516 63.903 238.703 L 63.903 238.703 L 63.903 238.703 C 63.717 238.896 63.57 239.12 63.463 239.373 L 63.463 239.373 L 63.463 239.373 C 63.35 239.626 63.293 239.896 63.293 240.183 L 63.293 240.183 L 63.293 245.763 L 63.293 245.763 C 63.293 246.05 63.35 246.32 63.463 246.573 L 63.463 246.573 L 63.463 246.573 C 63.57 246.826 63.717 247.05 63.903 247.243 L 63.903 247.243 L 63.903 247.243 C 64.09 247.43 64.31 247.576 64.563 247.683 L 64.563 247.683 L 64.563 247.683 C 64.823 247.79 65.097 247.843 65.383 247.843 L 65.383 247.843 L 66.343 247.843 L 66.343 247.843 C 66.63 247.843 66.9 247.79 67.153 247.683 L 67.153 247.683 L 67.153 247.683 C 67.413 247.576 67.637 247.43 67.823 247.243 L 67.823 247.243 L 67.823 247.243 C 68.01 247.05 68.157 246.826 68.263 246.573 L 68.263 246.573 L 68.263 246.573 C 68.377 246.32 68.433 246.05 68.433 245.763 L 68.433 245.763 ZM 80.771 248.973 L 80.291 248.973 L 79.491 247.753 L 79.491 247.753 C 79.165 248.2 78.755 248.553 78.261 248.813 L 78.261 248.813 L 78.261 248.813 C 77.768 249.073 77.228 249.203 76.641 249.203 L 76.641 249.203 L 76.281 249.203 L 76.281 249.203 C 75.795 249.203 75.338 249.113 74.911 248.933 L 74.911 248.933 L 74.911 248.933 C 74.478 248.746 74.101 248.493 73.781 248.173 L 73.781 248.173 L 73.781 248.173 C 73.461 247.853 73.211 247.48 73.031 247.053 L 73.031 247.053 L 73.031 247.053 C 72.845 246.62 72.751 246.163 72.751 245.683 L 72.751 245.683 L 72.751 236.973 L 74.191 236.973 L 74.191 245.763 L 74.191 245.763 C 74.191 246.05 74.248 246.32 74.361 246.573 L 74.361 246.573 L 74.361 246.573 C 74.468 246.826 74.615 247.05 74.801 247.243 L 74.801 247.243 L 74.801 247.243 C 74.988 247.43 75.208 247.576 75.461 247.683 L 75.461 247.683 L 75.461 247.683 C 75.721 247.79 75.995 247.843 76.281 247.843 L 76.281 247.843 L 77.241 247.843 L 77.241 247.843 C 77.528 247.843 77.798 247.79 78.051 247.683 L 78.051 247.683 L 78.051 247.683 C 78.311 247.576 78.535 247.43 78.721 247.243 L 78.721 247.243 L 78.721 247.243 C 78.908 247.05 79.055 246.826 79.161 246.573 L 79.161 246.573 L 79.161 246.573 C 79.275 246.32 79.331 246.05 79.331 245.763 L 79.331 245.763 L 79.331 236.973 L 80.771 236.973 L 80.771 248.973 ZM 88.619 238.343 L 87.179 238.343 L 87.179 238.343 C 86.893 238.343 86.619 238.4 86.359 238.513 L 86.359 238.513 L 86.359 238.513 C 86.106 238.62 85.886 238.766 85.699 238.953 L 85.699 238.953 L 85.699 238.953 C 85.513 239.14 85.366 239.36 85.259 239.613 L 85.259 239.613 L 85.259 239.613 C 85.146 239.866 85.089 240.14 85.089 240.433 L 85.089 240.433 L 85.089 248.973 L 83.649 248.973 L 83.649 236.973 L 84.129 236.973 L 84.919 238.193 L 84.919 238.193 C 85.246 237.746 85.656 237.393 86.149 237.133 L 86.149 237.133 L 86.149 237.133 C 86.649 236.873 87.193 236.743 87.779 236.743 L 87.779 236.743 L 88.619 236.743 L 88.619 238.343 Z" transform="matrix(0.5809699296951294, 0, 0, 0.48509901762008667, 24.34807586669922, 120.10367584228516)" style="fill: rgb(30, 30, 30); stroke: rgb(51, 51, 51); white-space: pre;"/>
  <path d="M 105.749 240.133 L 105.749 248.973 L 105.269 248.973 L 104.389 247.623 L 104.389 247.623 C 104.022 248.11 103.579 248.496 103.059 248.783 L 103.059 248.783 L 103.059 248.783 C 102.532 249.063 101.949 249.203 101.309 249.203 L 101.309 249.203 L 100.429 249.203 L 100.429 249.203 C 99.862 249.203 99.326 249.096 98.819 248.883 L 98.819 248.883 L 98.819 248.883 C 98.319 248.67 97.879 248.376 97.499 248.003 L 97.499 248.003 L 97.499 248.003 C 97.126 247.623 96.832 247.183 96.619 246.683 L 96.619 246.683 L 96.619 246.683 C 96.406 246.183 96.299 245.65 96.299 245.083 L 96.299 245.083 L 96.299 236.063 L 96.299 236.063 C 96.299 235.49 96.406 234.953 96.619 234.453 L 96.619 234.453 L 96.619 234.453 C 96.832 233.953 97.126 233.516 97.499 233.143 L 97.499 233.143 L 97.499 233.143 C 97.879 232.77 98.319 232.473 98.819 232.253 L 98.819 232.253 L 98.819 232.253 C 99.326 232.04 99.862 231.933 100.429 231.933 L 100.429 231.933 L 101.629 231.933 L 101.629 231.933 C 102.196 231.933 102.729 232.04 103.229 232.253 L 103.229 232.253 L 103.229 232.253 C 103.729 232.473 104.169 232.77 104.549 233.143 L 104.549 233.143 L 104.549 233.143 C 104.922 233.516 105.216 233.953 105.429 234.453 L 105.429 234.453 L 105.429 234.453 C 105.642 234.953 105.749 235.49 105.749 236.063 L 105.749 236.063 L 105.749 236.743 L 104.239 236.973 L 104.239 236.063 L 104.239 236.063 C 104.239 235.683 104.169 235.333 104.029 235.013 L 104.029 235.013 L 104.029 235.013 C 103.889 234.686 103.699 234.403 103.459 234.163 L 103.459 234.163 L 103.459 234.163 C 103.212 233.916 102.929 233.723 102.609 233.583 L 102.609 233.583 L 102.609 233.583 C 102.282 233.443 101.932 233.373 101.559 233.373 L 101.559 233.373 L 100.499 233.373 L 100.499 233.373 C 100.126 233.373 99.776 233.443 99.449 233.583 L 99.449 233.583 L 99.449 233.583 C 99.129 233.723 98.846 233.916 98.599 234.163 L 98.599 234.163 L 98.599 234.163 C 98.352 234.403 98.159 234.686 98.019 235.013 L 98.019 235.013 L 98.019 235.013 C 97.879 235.333 97.809 235.683 97.809 236.063 L 97.809 236.063 L 97.809 245.083 L 97.809 245.083 C 97.809 245.456 97.879 245.806 98.019 246.133 L 98.019 246.133 L 98.019 246.133 C 98.159 246.453 98.352 246.736 98.599 246.983 L 98.599 246.983 L 98.599 246.983 C 98.846 247.23 99.129 247.423 99.449 247.563 L 99.449 247.563 L 99.449 247.563 C 99.776 247.703 100.126 247.773 100.499 247.773 L 100.499 247.773 L 101.559 247.773 L 101.559 247.773 C 101.932 247.773 102.282 247.703 102.609 247.563 L 102.609 247.563 L 102.609 247.563 C 102.929 247.423 103.212 247.23 103.459 246.983 L 103.459 246.983 L 103.459 246.983 C 103.699 246.736 103.889 246.453 104.029 246.133 L 104.029 246.133 L 104.029 246.133 C 104.169 245.806 104.239 245.456 104.239 245.083 L 104.239 245.083 L 104.239 241.583 L 101.559 241.583 L 101.559 240.133 L 105.749 240.133 ZM 118.569 245.083 L 118.569 245.083 L 118.569 245.083 C 118.569 245.65 118.462 246.183 118.249 246.683 L 118.249 246.683 L 118.249 246.683 C 118.035 247.183 117.742 247.623 117.369 248.003 L 117.369 248.003 L 117.369 248.003 C 116.989 248.376 116.549 248.67 116.049 248.883 L 116.049 248.883 L 116.049 248.883 C 115.549 249.096 115.015 249.203 114.449 249.203 L 114.449 249.203 L 113.249 249.203 L 113.249 249.203 C 112.682 249.203 112.145 249.096 111.639 248.883 L 111.639 248.883 L 111.639 248.883 C 111.139 248.67 110.699 248.376 110.319 248.003 L 110.319 248.003 L 110.319 248.003 C 109.945 247.623 109.652 247.183 109.439 246.683 L 109.439 246.683 L 109.439 246.683 C 109.225 246.183 109.119 245.65 109.119 245.083 L 109.119 245.083 L 109.119 236.063 L 109.119 236.063 C 109.119 235.49 109.225 234.953 109.439 234.453 L 109.439 234.453 L 109.439 234.453 C 109.652 233.953 109.945 233.516 110.319 233.143 L 110.319 233.143 L 110.319 233.143 C 110.699 232.77 111.139 232.473 111.639 232.253 L 111.639 232.253 L 111.639 232.253 C 112.145 232.04 112.682 231.933 113.249 231.933 L 113.249 231.933 L 114.449 231.933 L 114.449 231.933 C 115.015 231.933 115.549 232.04 116.049 232.253 L 116.049 232.253 L 116.049 232.253 C 116.549 232.473 116.989 232.77 117.369 233.143 L 117.369 233.143 L 117.369 233.143 C 117.742 233.516 118.035 233.953 118.249 234.453 L 118.249 234.453 L 118.249 234.453 C 118.462 234.953 118.569 235.49 118.569 236.063 L 118.569 236.063 L 118.569 245.083 Z M 117.059 245.083 L 117.059 236.063 L 117.059 236.063 C 117.059 235.683 116.989 235.333 116.849 235.013 L 116.849 235.013 L 116.849 235.013 C 116.709 234.686 116.519 234.403 116.279 234.163 L 116.279 234.163 L 116.279 234.163 C 116.032 233.916 115.749 233.723 115.429 233.583 L 115.429 233.583 L 115.429 233.583 C 115.102 233.443 114.752 233.373 114.379 233.373 L 114.379 233.373 L 113.319 233.373 L 113.319 233.373 C 112.945 233.373 112.595 233.443 112.269 233.583 L 112.269 233.583 L 112.269 233.583 C 111.949 233.723 111.665 233.916 111.419 234.163 L 111.419 234.163 L 111.419 234.163 C 111.172 234.403 110.979 234.686 110.839 235.013 L 110.839 235.013 L 110.839 235.013 C 110.699 235.333 110.629 235.683 110.629 236.063 L 110.629 236.063 L 110.629 245.083 L 110.629 245.083 C 110.629 245.456 110.699 245.806 110.839 246.133 L 110.839 246.133 L 110.839 246.133 C 110.979 246.453 111.172 246.736 111.419 246.983 L 111.419 246.983 L 111.419 246.983 C 111.665 247.23 111.949 247.423 112.269 247.563 L 112.269 247.563 L 112.269 247.563 C 112.595 247.703 112.945 247.773 113.319 247.773 L 113.319 247.773 L 114.379 247.773 L 114.379 247.773 C 114.752 247.773 115.102 247.703 115.429 247.563 L 115.429 247.563 L 115.429 247.563 C 115.749 247.423 116.032 247.23 116.279 246.983 L 116.279 246.983 L 116.279 246.983 C 116.519 246.736 116.709 246.453 116.849 246.133 L 116.849 246.133 L 116.849 246.133 C 116.989 245.806 117.059 245.456 117.059 245.083 L 117.059 245.083 ZM 129.599 248.973 L 128.489 245.063 L 123.169 245.063 L 122.059 248.973 L 120.489 248.973 L 125.419 232.173 L 126.209 232.173 L 131.159 248.973 L 129.599 248.973 Z M 125.779 235.873 L 123.579 243.613 L 128.089 243.613 L 125.869 235.873 L 125.829 235.253 L 125.779 235.873 ZM 141.011 248.973 L 133.071 248.973 L 133.071 232.173 L 134.581 232.173 L 134.581 247.533 L 141.011 247.533 L 141.011 248.973 Z" transform="matrix(0.5809699296951294, 0, 0, 0.48509901762008667, 24.34807586669922, 120.10367584228516)" style="fill: rgb(30, 30, 30); stroke: rgb(203, 241, 80); white-space: pre;"/>
  <line style="stroke: rgb(216, 216, 216);" x1="52.472" y1="246.856" x2="150.009" y2="246.166"/>
  <path d="M -177.702 232.421 L -163.327 249.261 L -192.077 249.261 L -177.702 232.421 Z" style="fill: rgb(216, 216, 216);" transform="matrix(0, -1, -1.000001, 0, 279.685086, 70.599274)" bx:shape="triangle -192.077 232.421 28.75 16.84 0.5 0 1@e33d6007"/>
  <text y="129.621" x="161.341" style="font-family: Roboto; font-size: 36px; white-space: pre;"><tspan>3</tspan><tspan style="fill: rgb(172, 172, 172);">s</tspan></text>
  <g transform="matrix(1, 0, 0, 1, 262, 0)">
    <text x="147.481" y="130.134" style="font-family: Roboto; font-size: 36px; white-space: pre;"><tspan>10</tspan><tspan style="fill: rgb(172, 172, 172);">s</tspan></text>
  </g>
</svg>